<?xml version="1.0" encoding="UTF-8" standalone="no"?>
<svg
   xmlns:dc="http://purl.org/dc/elements/1.1/"
   xmlns:cc="http://creativecommons.org/ns#"
   xmlns:rdf="http://www.w3.org/1999/02/22-rdf-syntax-ns#"
   xmlns:svg="http://www.w3.org/2000/svg"
   xmlns="http://www.w3.org/2000/svg"
   xmlns:xlink="http://www.w3.org/1999/xlink"
   viewBox="0 0 1200 1200"
   height="1200"
   width="1200"
   xml:space="preserve"
   version="1.1"
   id="svg2"><metadata
     id="metadata8"><rdf:RDF><cc:Work
         rdf:about=""><dc:format>image/svg+xml</dc:format><dc:type
           rdf:resource="http://purl.org/dc/dcmitype/StillImage" /><dc:title></dc:title></cc:Work></rdf:RDF></metadata><defs
     id="defs6"><linearGradient
       id="linearGradient6776"><stop
         id="stop6778"
         offset="0"
         style="stop-color:#1a73d6;stop-opacity:1" /><stop
         id="stop6780"
         offset="1"
         style="stop-color:#164db2;stop-opacity:1" /></linearGradient><linearGradient
       id="linearGradient6769"><stop
         style="stop-color:#2df3ff;stop-opacity:1"
         offset="0"
         id="stop6771" /><stop
         style="stop-color:#416eff;stop-opacity:1"
         offset="1"
         id="stop6773" /></linearGradient><radialGradient
       gradientUnits="userSpaceOnUse"
       gradientTransform="matrix(-7.1247369e-7,9.4503094,10.903583,6.6992419e-7,-3394.1853,-926.14313)"
       r="45.057133"
       fy="391.85297"
       fx="135.99998"
       cy="391.85297"
       cx="135.99998"
       id="radialGradient6753"
       xlink:href="#linearGradient6769" /><radialGradient
       gradientUnits="userSpaceOnUse"
       gradientTransform="matrix(-4.3132703,0,3.5439812e-6,3.4257068,832.88926,-455.5892)"
       r="91.709961"
       fy="256.24988"
       fx="74.791672"
       cy="256.24988"
       cx="74.791672"
       id="radialGradient6763"
       xlink:href="#linearGradient6769" /><radialGradient
       gradientUnits="userSpaceOnUse"
       gradientTransform="matrix(-4.703426e-6,1.7946306,1.7157902,0,91.896604,66.627272)"
       r="126.43262"
       fy="275.00613"
       fx="120"
       cy="275.00613"
       cx="120"
       id="radialGradient6782"
       xlink:href="#linearGradient6776" /><filter
       height="1.038988"
       y="-0.019494003"
       width="1.0624307"
       x="-0.031215364"
       id="filter4757"
       style="color-interpolation-filters:sRGB"><feGaussianBlur
         id="feGaussianBlur4759"
         stdDeviation="8.8390356" /></filter></defs><g
     transform="matrix(1.25,0,0,-1.25,0,1200)"
     id="g10"><path
       id="path4711"
       d="M 480.0193,773.96033 C 369.70947,710.2956 259.49422,646.65921 149.19116,582.96754 c 0.001,-127.31796 0.005,-254.64769 0.0177,-381.95645 110.2976,-63.67281 220.51048,-127.317495 330.80288,-190.972 110.30065,63.68537 220.51037,127.29443 330.79589,190.9881 -0.0116,127.36022 0.008,254.60959 -0.01,381.95936 -110.2904,63.67629 -220.49544,127.29048 -330.77833,190.97378 z"
       style="opacity:1;fill:#9d9d9d;fill-opacity:1;fill-rule:nonzero;stroke:none;stroke-width:11.10000038;stroke-miterlimit:4;stroke-dasharray:none;stroke-opacity:1" /><circle
       transform="scale(1,-1)"
       r="178.34314"
       cy="-391.99969"
       cx="479.99963"
       id="path4666"
       style="color:#000000;clip-rule:nonzero;display:inline;overflow:visible;visibility:visible;opacity:1;isolation:auto;mix-blend-mode:normal;color-interpolation:sRGB;color-interpolation-filters:linearRGB;solid-color:#000000;solid-opacity:1;fill:#ffffff;fill-opacity:1;fill-rule:nonzero;stroke:none;stroke-width:4;stroke-linecap:butt;stroke-linejoin:miter;stroke-miterlimit:4;stroke-dasharray:none;stroke-dashoffset:0;stroke-opacity:1;color-rendering:auto;image-rendering:auto;shape-rendering:auto;text-rendering:auto;enable-background:accumulate" /><path
       transform="matrix(0.8,0,0,-0.8,753.6,960)"
       id="path6833"
       d="m -227.47461,28.003906 c -88.78811,154.493904 -85.0002,354.184034 2.89451,508.325124 29.95431,56.17916 67.49999,107.74794 100.93362,161.8155 -20.74914,53.72654 -62.06119,110.02474 -110.73633,133.57813 21.87169,-82.85771 -37.88848,-156.89849 -89.73445,-214.37868 -28.61764,-33.19018 2.05011,42.94485 -0.40384,60.75455 11.08819,57.03663 -30.25354,115.07091 -86.24452,127.42686 -59.17634,-18.56792 -93.46656,-90.09381 -65.00782,-146.64258 30.57728,-59.83778 65.16396,-123.07702 57.40871,-192.90318 -4.05909,-50.1221 -25.17175,-99.44722 -60.44568,-135.40545 -3.39094,83.89752 -54.24066,156.00323 -116.0434,208.93164 -59.5318,61.32725 -77.94767,152.02555 -76.2367,234.96198 4.44428,160.21651 126.64488,313.2952 287.87335,337.3796 C -244.81492,1136.0947 -101.65287,1057.06 -35.469758,935.15 35.496875,823.38556 9.9901558,680.25242 -38.993071,565.21406 -89.669974,445.1507 -166.00548,335.84474 -197.90071,208.03112 -214.00238,149.30364 -224.43786,88.854774 -227.47461,28.003906 Z"
       style="color:#000000;clip-rule:nonzero;display:inline;overflow:visible;visibility:visible;opacity:0.6;isolation:auto;mix-blend-mode:normal;color-interpolation:sRGB;color-interpolation-filters:linearRGB;solid-color:#000000;solid-opacity:1;fill:#000000;fill-opacity:1;fill-rule:nonzero;stroke:none;stroke-width:2.10252833;stroke-linecap:butt;stroke-linejoin:miter;stroke-miterlimit:4;stroke-dasharray:none;stroke-dashoffset:0;stroke-opacity:1;color-rendering:auto;image-rendering:auto;shape-rendering:auto;text-rendering:auto;enable-background:accumulate;filter:url(#filter4757)" /><path
       id="path6580"
       d="M 361.90884,712.97027 C 376,600 208.23296,362.13585 208.23296,362.13585 213.57529,207.38003 333.54322,84.791297 479.82391,84.611755 615.1778,84.762007 729.84615,190.21644 748.91333,332.07909 L 663.1049,585.07641 c 2.81668,-16.9418 4.27433,-34.24846 4.34742,-51.61702 0,-132.79912 -79.21754,-240.45407 -176.93733,-240.45409 C 440,300 432,296 380,348 c -16,16 -22.18487,40.13517 -23.44087,58.43828 -0.67415,24.99336 7.06025,44.6942 17.46905,64.30894 6.24665,11.75324 14.02198,25.71937 20.69726,41.96988 10.68888,25.34601 15.98203,51.7951 16.10761,77.27483 0.0885,40.05903 -13.10756,71.91769 -25.56671,92.60849 -12.4286,20.64005 -23.3575,30.36985 -23.3575,30.36985 z"
       style="color:#000000;clip-rule:nonzero;display:inline;overflow:visible;visibility:visible;opacity:1;isolation:auto;mix-blend-mode:normal;color-interpolation:sRGB;color-interpolation-filters:linearRGB;solid-color:#000000;solid-opacity:1;fill:url(#radialGradient6782);fill-opacity:1;fill-rule:nonzero;stroke:none;stroke-width:2.10252833;stroke-linecap:butt;stroke-linejoin:miter;stroke-miterlimit:4;stroke-dasharray:none;stroke-dashoffset:0;stroke-opacity:1;color-rendering:auto;image-rendering:auto;shape-rendering:auto;text-rendering:auto;enable-background:accumulate" /><path
       id="ellipse6599"
       d="m 361.91302,712.95462 c -3.13094,-62.44037 -37.86001,-118.94125 -84.5411,-158.90985 -26.55008,-23.66652 -44.90978,-54.90531 -54.54522,-89.00004 -38.12217,-111.33788 -2.43753,-244.15441 89.01366,-318.9972 72.20169,-61.814606 179.23517,-79.389978 266.71767,-41.30794 13.72126,5.39364 30.87323,11.20566 6.48404,16.93798 -39.83689,21.64724 -74.87238,66.18572 -66.1781,113.66279 10.59669,30.96189 37.54215,55.22162 41.20906,89.07346 8.43773,54.82927 -27.15574,103.23251 -59.91695,143.19802 -8.57979,8.72496 -32.60442,41.02262 -22.76226,12.2695 5.68177,-32.62951 16.9037,-68.06657 -0.22608,-99.38047 -22.48472,-44.87578 -81.67002,-61.81814 -127.512,-47.09139 -44.05316,14.02966 -68.90716,66.72827 -52.63756,109.86516 12.706,40.12413 51.68559,63.79805 68.54001,101.877 27.50878,51.73732 28.08578,117.75202 -3.64517,167.80298 z"
       style="color:#000000;clip-rule:nonzero;display:inline;overflow:visible;visibility:visible;opacity:1;isolation:auto;mix-blend-mode:normal;color-interpolation:sRGB;color-interpolation-filters:linearRGB;solid-color:#000000;solid-opacity:1;fill:url(#radialGradient6763);fill-opacity:1;fill-rule:nonzero;stroke:none;stroke-width:2.10252833;stroke-linecap:butt;stroke-linejoin:miter;stroke-miterlimit:4;stroke-dasharray:none;stroke-dashoffset:0;stroke-opacity:1;color-rendering:auto;image-rendering:auto;shape-rendering:auto;text-rendering:auto;enable-background:accumulate" /><path
       id="path6686"
       transform="matrix(0.8,0,0,-0.8,0,960)"
       d="M 703.72852 6.2441406 C 620.65945 151.62982 617.3986 338.17898 692.8457 487.42969 C 750.44654 609.66444 853.95962 710.40985 881.31445 846.2793 C 888.56967 868.92492 884.44853 912.39342 888.22461 923.99609 C 951.74071 837.00574 948.91976 720.35633 919.76953 621.14453 C 901.39763 558.21708 873.73747 498.44689 843.45703 440.46484 C 784.99482 335.50348 734.21784 224.32803 714.97266 104.79492 C 709.36788 72.199847 705.15765 39.304716 703.72852 6.2441406 z "
       style="fill:url(#radialGradient6753);fill-opacity:1;fill-rule:evenodd;stroke:none;stroke-width:1.68202269;stroke-linecap:butt;stroke-linejoin:miter;stroke-miterlimit:4;stroke-dasharray:none;stroke-opacity:1" /></g></svg>